<?xml version="1.0" encoding="utf-8"?>
<!-- Generator: Adobe Illustrator 27.3.1, SVG Export Plug-In . SVG Version: 6.00 Build 0)  -->
<svg version="1.1" id="Layer_1" xmlns="http://www.w3.org/2000/svg" xmlns:xlink="http://www.w3.org/1999/xlink" x="0px" y="0px"
	 viewBox="0 0 841.89 595.28" style="enable-background:new 0 0 841.89 595.28;" xml:space="preserve">
<style type="text/css">
	.st0{fill:url(#SVGID_1_);}
	.st1{fill:#FFC8DD;}
	.st2{fill:#58595B;}
	.st3{fill:#CDB4DB;}
	.st4{fill:#F3E0ED;}
</style>
<g id="Background">
	
		<linearGradient id="SVGID_1_" gradientUnits="userSpaceOnUse" x1="0" y1="297.6356" x2="841.89" y2="297.6356" gradientTransform="matrix(1 0 0 -1 0 595.2756)">
		<stop  offset="0" style="stop-color:#CDB4DB"/>
		<stop  offset="0.0433" style="stop-color:#D5BADD"/>
		<stop  offset="0.1536" style="stop-color:#E4C6E0"/>
		<stop  offset="0.2853" style="stop-color:#ECCDE2"/>
		<stop  offset="0.4929" style="stop-color:#EFCFE3"/>
		<stop  offset="0.7945" style="stop-color:#F1CEE2"/>
		<stop  offset="0.9377" style="stop-color:#F9CBDF"/>
		<stop  offset="1" style="stop-color:#FFC8DD"/>
	</linearGradient>
	<rect class="st0" width="841.89" height="595.28"/>
</g>
<g id="Logo">
	<g>
		<rect x="266.08" y="228.16" class="st1" width="54" height="298"/>
		<path class="st2" d="M318.58,229.66v295h-51v-295H318.58 M321.58,226.66h-57v301h57V226.66L321.58,226.66z"/>
	</g>
	<g>
		<path class="st3" d="M344.54,341.31l-21.84-24.37l-56.62-63.14v-25.64h54.81l16.5,19.05c16.1,18.03,32.54,36.18,48.88,53.96
			c12.89,14.03,26.06,28.21,39.16,42.15l-43.84,39.31L344.54,341.31z"/>
		<path class="st2" d="M320.21,229.66l14.05,16.22l2.03,2.35c16.09,18.02,32.53,36.17,48.88,53.96
			c12.57,13.68,25.38,27.48,38.12,41.04l-1.66,1.49l-39.92,35.79l-36.05-40.21l-21.84-24.37l-56.24-62.71v-23.56H320.21
			 M321.58,226.66c-19,0-38,0-57,0v27.71l57,63.57l21.84,24.37l38.05,42.44c15.37-13.78,30.74-27.56,46.11-41.34
			c-13.36-14.2-26.76-28.62-40.2-43.25c-16.6-18.07-32.88-36.05-48.85-53.93C332.88,239.71,327.23,233.18,321.58,226.66
			L321.58,226.66z"/>
	</g>
	<g>
		<path class="st1" d="M523.08,383.25c-19.59,0-38.76-3.76-55.5-10.88v-63.48c0-0.59-0.35-1.13-0.89-1.37
			c-0.2-0.09-0.4-0.13-0.61-0.13c-0.36,0-0.72,0.13-1,0.38l-8.96,8.04L427,341.91c-8.24-11.09-12.58-23.58-12.58-36.22
			c0-27.28,19.54-52.05,52.26-66.27c16.95-7.37,36.46-11.27,56.4-11.27c59.92,0,108.66,34.78,108.66,77.54
			C631.74,348.46,583,383.25,523.08,383.25z M525.72,272.36c-0.88,0-1.77,0.01-2.66,0.04c-0.81,0.03-1.45,0.69-1.45,1.5l-0.03,62.12
			c0,0.81,0.64,1.47,1.45,1.5c1.02,0.04,2.03,0.05,3.04,0.05c14.58,0,28.42-3.83,38.98-10.79c9.52-6.27,15.22-14.35,15.25-21.59
			c0.02-5.09-2.8-10.75-7.96-15.92C561.8,278.68,544.37,272.36,525.72,272.36z"/>
		<path class="st2" d="M523.08,229.66c59.09,0,107.16,34.11,107.16,76.04s-48.07,76.05-107.16,76.05c-19.04,0-37.66-3.58-54-10.37
			v-62.49c0-1.18-0.7-2.26-1.78-2.74c-0.39-0.18-0.81-0.26-1.22-0.26c-0.73,0-1.44,0.26-2,0.77l-8.96,8.04l-27.88,24.99
			c-7.42-10.49-11.32-22.18-11.32-33.99c0-13.15,4.83-26.12,13.97-37.51c8.98-11.19,21.91-20.66,37.39-27.39
			C484.04,233.51,503.34,229.66,523.08,229.66 M526.06,339.07c14.87,0,29-3.92,39.8-11.04c9.94-6.55,15.89-15.09,15.92-22.84
			c0.02-5.5-2.96-11.53-8.39-16.99c-10.81-10.86-28.63-17.34-47.68-17.34c-0.9,0-1.81,0.01-2.71,0.04c-1.62,0.05-2.91,1.38-2.91,3
			l-0.01,31.06l-0.01,31.06c0,1.62,1.28,2.94,2.89,3C524,339.05,525.04,339.07,526.06,339.07 M523.08,226.66
			c-20.86,0-40.37,4.16-57,11.39c-31.87,13.85-53.16,38.97-53.16,67.65c0,13.95,5.03,27.05,13.87,38.42l30.33-27.19l8.96-8.04v64.47
			c16.63,7.23,36.14,11.39,57,11.39c60.84,0,110.16-35.39,110.16-79.05C633.24,262.05,583.92,226.66,523.08,226.66L523.08,226.66z
			 M526.06,336.07c-0.99,0-1.98-0.02-2.98-0.05c0.01-20.71,0.01-41.41,0.02-62.12c0.88-0.03,1.75-0.04,2.62-0.04
			c31.85,0,53.13,18.16,53.07,31.32C578.73,318.25,557.56,336.07,526.06,336.07L526.06,336.07z"/>
	</g>
	<g>
		<path class="st1" d="M342.94,339.53l38.35-32.29l5.63-5.16c23.92-21.92,47.85-43.84,71.77-65.75l8.02-8.17h54.87v28.96l-3.99,3.58
			l-52.51,47.07l-8.96,8.04l-74.53,66.82L342.94,339.53z"/>
		<path class="st2" d="M520.08,229.66v26.79l-3.49,3.13l-52.51,47.08l-8.96,8.04l-30.33,27.19l-2.88,2.58l-40.21,36.05
			c-6.11-6.82-12.22-13.63-18.34-20.45c-6.09-6.79-12.18-13.59-18.27-20.38l17.24-14.52l19.92-16.77c0.03-0.03,0.06-0.05,0.09-0.08
			l6.17-5.65c23.72-21.74,47.46-43.48,71.19-65.22c0.04-0.04,0.08-0.07,0.11-0.11c1.4-1.42,2.8-2.85,4.2-4.28
			c1.11-1.13,2.22-2.26,3.32-3.39L520.08,229.66 M523.08,226.66h-57c-2.8,2.85-5.6,5.71-8.4,8.56
			c-25.79,23.62-51.58,47.25-77.36,70.87c-13.18,11.1-26.35,22.19-39.53,33.29c13.56,15.12,27.12,30.25,40.68,45.37l42.44-38.05
			l2.88-2.58l30.33-27.19l8.96-8.04l52.51-47.07l4.49-4.03L523.08,226.66L523.08,226.66z"/>
	</g>
	<g>
		<rect x="467.58" y="228.16" class="st3" width="54" height="298"/>
		<path class="st2" d="M520.08,229.66v295h-51v-295H520.08 M523.08,226.66h-57v301h57V226.66L523.08,226.66z"/>
	</g>
</g>
<path class="st4" d="M466.08,226.66c0.09-24.52,2.97-60.73,17.02-101.58c15.33-44.56,46.16-100.98,58.73-97.13
	c9.44,2.89,12.21,40.87-18.75,198.71C504.08,226.66,485.08,226.66,466.08,226.66z"/>
<path class="st4" d="M321.58,226.66c0.99-10.63,14.79-165.67-18.92-174.14c-32.83-8.25-103.03,124.44-89.51,135.25
	c6.33,5.05,31.99-15.74,61.15-43.03c-3.24,27.31-6.48,54.62-9.72,81.93H321.58z"/>
</svg>
